<svg width="37" height="19" viewBox="0 0 37 19" fill="none" xmlns="http://www.w3.org/2000/svg">
<rect width="37" height="19" rx="2.34425" fill="#38AE04"/>
<path fill-rule="evenodd" clip-rule="evenodd" d="M11.2654 12.7978C9.4336 12.7978 8 11.6451 8 9.85207C8 7.52704 9.80196 6 11.8628 6C13.4855 6 14.4213 6.86696 14.8096 7.862L13.4556 8.31519C13.1968 7.6157 12.5596 7.24133 11.7931 7.24133C10.5387 7.24133 9.48338 8.31519 9.48338 9.76341C9.48338 10.788 10.2002 11.5564 11.3451 11.5564C11.9125 11.5564 12.5298 11.2609 12.9081 10.7979L14.0032 11.5269C13.2366 12.4924 12.1316 12.7978 11.2654 12.7978ZM17.1989 7.80289C17.846 7.80289 18.4135 8.07874 18.7321 8.55163L18.8615 7.92111H20.1358L19.0706 12.6796H17.7963L17.9356 12.0884C17.5275 12.5613 17.0695 12.7978 16.4921 12.7978C15.4069 12.7978 14.6603 12.0884 14.6603 10.8274C14.6603 9.38904 15.5662 7.80289 17.1989 7.80289ZM17.398 8.91615C16.5717 8.91615 15.9844 9.69444 15.9844 10.5713C15.9844 11.251 16.4423 11.6845 17.0496 11.6845C17.4976 11.6845 17.8958 11.4382 18.1547 11.1131L18.523 9.46785C18.314 9.14274 17.9058 8.91615 17.398 8.91615ZM22.4156 12.7978C23.7298 12.7978 24.4964 12.0392 24.4964 11.1328C24.4964 9.68459 22.0473 9.81267 22.0473 9.23141C22.0473 8.98511 22.2962 8.78807 22.7442 8.78807C23.3316 8.78807 23.9289 9.11319 24.1579 9.40874L24.8149 8.57133C24.357 8.1083 23.5904 7.80289 22.774 7.80289C21.4898 7.80289 20.7929 8.58119 20.7929 9.40874C20.7929 10.8373 23.242 10.6796 23.242 11.32C23.242 11.586 22.9732 11.8126 22.5451 11.8126C21.8482 11.8126 21.1513 11.3988 20.8626 11.0639L20.1557 11.9407C20.6933 12.5022 21.5396 12.7978 22.4156 12.7978ZM29.5936 12.6796L30.3204 9.40874C30.3403 9.31022 30.3701 9.11319 30.3701 9.01467C30.3701 8.27578 29.7927 7.80289 28.8668 7.80289C28.16 7.80289 27.6423 8.17726 27.264 8.53193L27.8116 6.10837H26.5372L25.0738 12.6796H26.3481L27.0549 9.4777C27.3337 9.20185 27.7518 8.91615 28.1799 8.91615C28.6478 8.91615 29.0062 9.08363 29.0062 9.51711C29.0062 9.58607 28.9863 9.71415 28.9664 9.79296L28.3292 12.6796H29.5936Z" fill="white"/>
</svg>
