<svg viewBox="0 0 788 388" xmlns="http://www.w3.org/2000/svg"><g fill="#ffd503"><path d="M11.23 9.24c6.2-5.48 14.51-8.17 22.73-8 239.71.02 479.42-.01 719.13.02 11.53-.21 22.91 6.09 28.63 16.13 4.58 7.32 4.74 16.22 4.53 24.57v103.05c-.15 24.4.44 48.81-.11 73.21-1.52 10.83-8.22 20.92-18.2 25.64-6.76 3.46-14.52 3.56-21.93 3.39H33.96c-7.37.06-14.84-1.99-20.76-6.48C6.84 236.24 2.75 229.21.63 221.8c1.11-1.52 1.02-3.88-.63-4.98V32.45c.48-8.83 4.49-17.44 11.23-23.21m121.69 17.67c-21.9 3.3-42.59 14.18-57.63 30.45-16.93 18.09-26.64 42.86-26.09 67.66-.11 17.64 5.07 35.22 14.25 50.25.64 1.46.74 3.22 1.96 4.38l.13-.77c7.31 10.69 16.6 20.01 27.31 27.32 19.28 12.83 43.16 18.58 66.16 15.78 23.61-2.72 46.08-14.39 61.9-32.13 15.64-17.35 24.74-40.47 24.98-63.83.48-18.74-4.83-37.45-14.56-53.43-7.26-11.48-16.64-21.68-27.85-29.41l.86.44c-4.76-2.96-9.51-5.99-14.62-8.33-17.53-8.47-37.59-11.07-56.8-8.38m161.09 32.56c-6.09 1.49-12.29 4.06-16.33 9.07-5.55 6.82-7.13 15.92-7.42 24.47-.03 23.33 0 46.65-.02 69.97-.32 2.3 1.39 4.77 3.83 4.73 6.29.06 12.58.1 18.87-.02 2.34-.04 3.96-2.51 3.6-4.71-.03-15.64.04-31.28-.04-46.92 9.17-.15 18.34.01 27.51-.07 2.36.37 4.57-1.65 4.67-3.97.13-3.65.19-7.32-.06-10.97-.28-2.15-2.48-3.67-4.57-3.57-9.18-.05-18.36.01-27.54-.02.38-5.76.17-12.24 3.99-17 3.79-3.8 9.59-3.98 14.6-4.56 6.95-.99 13.84 2.02 20.75.82 3.47-1.47 2.85-5.74 2.94-8.79-.24-2.57.63-6.14-2.04-7.72-3.31-1.76-7.15-2.03-10.8-2.37-10.65-.65-21.48-.72-31.94 1.63m54.12 30.71c-5.15 3.37-8.11 9.64-7.59 15.74.43 2.03 2.24 3.85 4.4 3.78 4.85.02 9.76.32 14.59-.24 4.81-.84 6.74-6.23 11.27-7.61 5.99-1.94 12.8-1.82 18.62.64 5.07 2.37 5.81 8.56 6.12 13.5-10.51.11-21.02-.27-31.52.41-7.5.67-15.03 2.97-21.03 7.64-11.28 8.52-11.45 27.69-.65 36.67 6.81 5.78 15.85 8.21 24.63 8.63 10.74.71 21.87-1.85 30.69-8.18-.21 2.49.47 5.86 3.32 6.48 5.35.27 10.72.05 16.08.11 2.17.31 4.74-1.3 4.64-3.66.13-16.37-.01-32.74.07-49.11.09-6.71-1.64-13.67-5.83-19.02-4.94-6.16-12.41-9.75-19.99-11.44-7.17-1.74-14.58-1.27-21.88-1.21-8.92.63-18.34 1.77-25.94 6.87m249.16 3.62c.07-3.17.62-7.87-3.26-9.02-6.32-.21-12.66-.05-18.98-.08-2.75-.17-4.62 2.74-4.35 5.25 0 24.35-.03 48.7.01 73.04-.19 2.34 1.7 4.9 4.19 4.74 6.07.03 12.14.06 18.22-.01 2.93.15 4.44-3.13 4.2-5.66-.03-14.36.02-28.73-.03-43.09.09-1.5-.26-3.1.3-4.51 4.07-4.67 9.07-9.11 15.32-10.38 6.61-1.02 13.33.57 19.97-.27 1.29-.85 2.73-2.13 2.62-3.83.05-4.31.14-8.63-.05-12.93.04-1.66-1.31-2.77-2.54-3.61-5.61-.53-11.33-.17-16.83 1.06-6.88 1.64-13.05 5.29-18.79 9.3m-171.13-2.7c7.53 23.05 15.16 46.06 22.72 69.1.96 4.14 4.84 7.47 9.13 7.53 3.99.06 7.99.03 11.99.02 3.74.08 7.48-2.21 9.06-5.6 5.13-14.97 9.44-30.25 14.92-45.07 4.85 14.63 9.47 29.33 14.21 43.99 1.22 4.13 5.59 6.95 9.84 6.69 3.65-.01 7.3.02 10.96-.01 4.21.17 8.3-2.77 9.53-6.79 7.68-23.34 15.36-46.67 23.05-70.01.66-2.02.98-5.5-1.68-6.15-5.3-.28-10.62-.02-15.92-.12-4.16-.19-8.65 2.11-10.13 6.15-4.27 13.46-8.06 27.09-12.5 40.5-4.09-13.49-8.08-27.02-12.17-40.5-.87-3.24-3.72-5.94-7.14-6.11-5.33-.07-10.65-.04-15.97-.01-3.71-.06-6.68 2.97-7.63 6.36-4.07 13.44-8.09 26.89-12.15 40.33-4.33-13.4-8.16-26.95-12.42-40.36-1.38-4.03-5.7-6.5-9.85-6.36-5.34.07-10.68-.12-16.01.09-3.04.55-2.57 4.14-1.84 6.33m216.62-1.19c4.27 13.73 8.33 27.52 12.82 41.18 3.42 9.14 7.59 18.83 15.83 24.65 5.39 3.94 12.14 5.59 18.74 5.65-1.76 6.33-5.21 13.64-12.31 15.09-5.61.65-11.16-1.8-16.79-.89-3.63 1.16-3.11 5.45-3.1 8.43.19 2.9-.89 6.9 2.35 8.52 6.21 2.6 13.09 2 19.67 2.44 7.34.34 15.2-.92 21.01-5.76 8.3-6.82 12.13-17.36 15.2-27.31 6.67-23.63 13.24-47.28 19.91-70.9.92-2.1.58-4.52-1.15-6.09-5.99-.53-12.03-.09-18.04-.24-3.59-.35-6.25 2.96-6.9 6.19-4.81 17.32-9.96 34.55-14.62 51.91-8.37-.34-12.17-8.96-14.61-15.73-4.18-12.34-7.74-24.88-11.71-37.29-.89-2.98-3.9-5.32-7.07-5.08-5.32.03-10.64-.03-15.96.02-2.78-.38-4.38 2.96-3.27 5.21z"/><path d="M361.49 139.95c1.32-4.41 6.22-6.38 10.47-6.39 7.84-.08 15.68.01 23.51-.03-.01 3.85-.01 7.7 0 11.56-7.79 4.85-17.24 7.87-26.45 6.39-5.2-.71-9.51-6.36-7.53-11.53z"/></g><g fill="#fff"><path d="M132.92 26.91c19.21-2.69 39.27-.09 56.8 8.38 5.11 2.34 9.86 5.37 14.62 8.33l-.86-.44-1.67-.88c1.2 5.47 1.21 11.19-.35 16.59-4.06 15.38-12.89 28.93-22.2 41.62-1.35 1.69-1.26 4.76.92 5.72 1.38.98 3.2.29 4.77.36 6.66-.62 13.34-1.12 20.01-1.65-.58 5.39-1.56 10.74-1.89 16.15-.04 2.8 3.53 4.53 5.74 2.89 1.87-1.59 3.09-3.77 4.49-5.75 7.78-11.68 14.82-24.21 17.88-38.03.42-2.5 1.27-5.17.15-7.61 9.73 15.98 15.04 34.69 14.56 53.43-.24 23.36-9.34 46.48-24.98 63.83-15.82 17.74-38.29 29.41-61.9 32.13-23 2.8-46.88-2.95-66.16-15.78 2.56 1.76 5.71.84 8.53.39 14.79-3.05 28.34-10.23 40.96-18.31 9.79-6.46 19.18-13.57 27.8-21.51 3.73 3 6.47 6.99 10.14 10.04 2.03 1.75 5.8.52 5.97-2.31 2.18-16.78 4.12-33.6 6.28-50.38.09-1.93.82-4.33-.79-5.84-1.22-1.39-3.21-.98-4.82-.95-16.92 1.5-33.85 2.81-50.78 4.22-1.94-.04-3.77 1.37-3.91 3.37-.34 1.88 1.23 3.21 2.31 4.49 3.1 3.14 6.15 6.33 9.19 9.52-14.96 13.21-31.4 25.14-49.84 32.99-8.96 3.48-18.81 6.88-28.47 4.44.02.84.06 1.67.12 2.52l-.13.77c-1.22-1.16-1.32-2.92-1.96-4.38-9.18-15.03-14.36-32.61-14.25-50.25-.55-24.8 9.16-49.57 26.09-67.66 15.04-16.27 35.73-27.15 57.63-30.45zM287.3 280.9c-.07-2.48 2.03-5.05 4.64-4.88 12.01-.03 24.03-.04 36.04 0 8.52.28 17.87 2.63 23.24 9.79 5.71 7.77 5.99 18.24 4.27 27.39-1.45 8.49-8.09 15.69-16.41 17.9-10.52 2.96-21.59 1.08-32.36 1.62-.06 3.79.07 7.59-.02 11.39.1 2.5-2.05 4.85-4.58 4.85-3.39.1-6.79.09-10.19 0-2.59.03-4.78-2.38-4.63-4.94-.02-21.04-.03-42.08 0-63.12m19.4 9.61c.03 9.25-.01 18.51.02 27.77 7.93-.34 16.23 1.1 23.83-1.77 5.73-2.17 6.95-9.15 6.33-14.54-.16-4.28-2.64-8.59-6.91-9.86-7.49-2.48-15.53-1.43-23.27-1.6zM375.42 296.51c6.79-3.95 14.95-4.23 22.61-4.25 7.36-.01 15.29 1.68 20.69 7.01 3.94 3.77 5.53 9.37 5.53 14.69-.01 10-.02 20 .01 30 .05 1.53-.4 3.01-.83 4.47-4 1.36-8.31.78-12.45.7-2.36-.07-2.72-2.52-3.24-4.28-8.7 5.79-20.16 6.84-29.96 3.44-4.79-1.7-9.43-4.96-11.25-9.89-2.04-5.84-1.18-13.08 3.44-17.49 4.51-4.34 10.9-6.11 17.02-6.37 6.55-.06 13.11.03 19.66-.03-.38-3.09-.51-6.91-3.41-8.78-3.66-2.15-8.24-2.07-12.26-1.21-3.67.69-5.24 4.96-8.95 5.54-3.84.3-7.81.55-11.55-.56-2.48-4.74.61-10.54 4.94-12.99m8.02 35.47c-.4 3.7 3.36 6.2 6.67 6.39 5.8.39 11.57-1.51 16.46-4.54-.05-2.53-.05-5.06-.04-7.58-5.53.03-11.07-.08-16.59.02-3.11.07-6.6 2.28-6.5 5.71zM432.5 296.97c.03-3.43 4.29-2.22 6.52-2.46 3.65.49 8.91-1.54 11.04 2.55 3.13 9 5.42 18.29 8.74 27.23 1.71 4 4.21 8.99 9.21 9.12 3.14-11.56 6.57-23.04 9.8-34.58.44-2.03 1.77-4.45 4.19-4.29 3.95 0 7.91-.15 11.85.09 2.33.12 2.05 2.74 1.53 4.25-4.38 15.67-8.75 31.33-13.15 46.99-1.85 6.29-4.2 12.73-8.83 17.54-4.03 3.98-9.86 5.41-15.39 5.09-4.72-.28-10.01.42-14.22-2.12-1.77-3.18-1.21-7.09-.02-10.37 4.96-1.83 10.39 1.86 15.06-.91 3.23-1.91 4.49-5.64 5.75-8.94-4.22-.46-8.63-1.07-12.15-3.64-6.42-4.36-9.39-11.96-11.83-19.01-2.73-8.84-5.51-17.67-8.1-26.54z"/></g><g fill="#006c98"><path d="M201.46 58.89c1.56-5.4 1.55-11.12.35-16.59l1.67.88c11.21 7.73 20.59 17.93 27.85 29.41 1.12 2.44.27 5.11-.15 7.61-3.06 13.82-10.1 26.35-17.88 38.03-1.4 1.98-2.62 4.16-4.49 5.75-2.21 1.64-5.78-.09-5.74-2.89.33-5.41 1.31-10.76 1.89-16.15-6.67.53-13.35 1.03-20.01 1.65-1.57-.07-3.39.62-4.77-.36-2.18-.96-2.27-4.03-.92-5.72 9.31-12.69 18.14-26.24 22.2-41.62zM294.01 59.47c10.46-2.35 21.29-2.28 31.94-1.63 3.65.34 7.49.61 10.8 2.37 2.67 1.58 1.8 5.15 2.04 7.72-.09 3.05.53 7.32-2.94 8.79-6.91 1.2-13.8-1.81-20.75-.82-5.01.58-10.81.76-14.6 4.56-3.82 4.76-3.61 11.24-3.99 17 9.18.03 18.36-.03 27.54.02 2.09-.1 4.29 1.42 4.57 3.57.25 3.65.19 7.32.06 10.97-.1 2.32-2.31 4.34-4.67 3.97-9.17.08-18.34-.08-27.51.07.08 15.64.01 31.28.04 46.92.36 2.2-1.26 4.67-3.6 4.71-6.29.12-12.58.08-18.87.02-2.44.04-4.15-2.43-3.83-4.73.02-23.32-.01-46.64.02-69.97.29-8.55 1.87-17.65 7.42-24.47 4.04-5.01 10.24-7.58 16.33-9.07zM348.13 90.18c7.6-5.1 17.02-6.24 25.94-6.87 7.3-.06 14.71-.53 21.88 1.21 7.58 1.69 15.05 5.28 19.99 11.44 4.19 5.35 5.92 12.31 5.83 19.02-.08 16.37.06 32.74-.07 49.11.1 2.36-2.47 3.97-4.64 3.66-5.36-.06-10.73.16-16.08-.11-2.85-.62-3.53-3.99-3.32-6.48-8.82 6.33-19.95 8.89-30.69 8.18-8.78-.42-17.82-2.85-24.63-8.63-10.8-8.98-10.63-28.15.65-36.67 6-4.67 13.53-6.97 21.03-7.64 10.5-.68 21.01-.3 31.52-.41-.31-4.94-1.05-11.13-6.12-13.5-5.82-2.46-12.63-2.58-18.62-.64-4.53 1.38-6.46 6.77-11.27 7.61-4.83.56-9.74.26-14.59.24-2.16.07-3.97-1.75-4.4-3.78-.52-6.1 2.44-12.37 7.59-15.74m13.36 49.77c-1.98 5.17 2.33 10.82 7.53 11.53 9.21 1.48 18.66-1.54 26.45-6.39-.01-3.86-.01-7.71 0-11.56-7.83.04-15.67-.05-23.51.03-4.25.01-9.15 1.98-10.47 6.39zM597.29 93.8c5.74-4.01 11.91-7.66 18.79-9.3 5.5-1.23 11.22-1.59 16.83-1.06 1.23.84 2.58 1.95 2.54 3.61.19 4.3.1 8.62.05 12.93.11 1.7-1.33 2.98-2.62 3.83-6.64.84-13.36-.75-19.97.27-6.25 1.27-11.25 5.71-15.32 10.38-.56 1.41-.21 3.01-.3 4.51.05 14.36 0 28.73.03 43.09.24 2.53-1.27 5.81-4.2 5.66-6.08.07-12.15.04-18.22.01-2.49.16-4.38-2.4-4.19-4.74-.04-24.34-.01-48.69-.01-73.04-.27-2.51 1.6-5.42 4.35-5.25 6.32.03 12.66-.13 18.98.08 3.88 1.15 3.33 5.85 3.26 9.02zM426.16 91.1c-.73-2.19-1.2-5.78 1.84-6.33 5.33-.21 10.67-.02 16.01-.09 4.15-.14 8.47 2.33 9.85 6.36 4.26 13.41 8.09 26.96 12.42 40.36 4.06-13.44 8.08-26.89 12.15-40.33.95-3.39 3.92-6.42 7.63-6.36 5.32-.03 10.64-.06 15.97.01 3.42.17 6.27 2.87 7.14 6.11 4.09 13.48 8.08 27.01 12.17 40.5 4.44-13.41 8.23-27.04 12.5-40.5 1.48-4.04 5.97-6.34 10.13-6.15 5.3.1 10.62-.16 15.92.12 2.66.65 2.34 4.13 1.68 6.15-7.69 23.34-15.37 46.67-23.05 70.01-1.23 4.02-5.32 6.96-9.53 6.79-3.66.03-7.31 0-10.96.01-4.25.26-8.62-2.56-9.84-6.69-4.74-14.66-9.36-29.36-14.21-43.99-5.48 14.82-9.79 30.1-14.92 45.07-1.58 3.39-5.32 5.68-9.06 5.6-4 .01-8 .04-11.99-.02-4.29-.06-8.17-3.39-9.13-7.53-7.56-23.04-15.19-46.05-22.72-69.1zM642.78 89.91c-1.11-2.25.49-5.59 3.27-5.21 5.32-.05 10.64.01 15.96-.02 3.17-.24 6.18 2.1 7.07 5.08 3.97 12.41 7.53 24.95 11.71 37.29 2.44 6.77 6.24 15.39 14.61 15.73 4.66-17.36 9.81-34.59 14.62-51.91.65-3.23 3.31-6.54 6.9-6.19 6.01.15 12.05-.29 18.04.24 1.73 1.57 2.07 3.99 1.15 6.09-6.67 23.62-13.24 47.27-19.91 70.9-3.07 9.95-6.9 20.49-15.2 27.31-5.81 4.84-13.67 6.1-21.01 5.76-6.58-.44-13.46.16-19.67-2.44-3.24-1.62-2.16-5.62-2.35-8.52-.01-2.98-.53-7.27 3.1-8.43 5.63-.91 11.18 1.54 16.79.89 7.1-1.45 10.55-8.76 12.31-15.09-6.6-.06-13.35-1.71-18.74-5.65-8.24-5.82-12.41-15.51-15.83-24.65-4.49-13.66-8.55-27.45-12.82-41.18zM136.14 121.55c16.93-1.41 33.86-2.72 50.78-4.22 1.61-.03 3.6-.44 4.82.95 1.61 1.51.88 3.91.79 5.84-2.16 16.78-4.1 33.6-6.28 50.38-.17 2.83-3.94 4.06-5.97 2.31-3.67-3.05-6.41-7.04-10.14-10.04-8.62 7.94-18.01 15.05-27.8 21.51-12.62 8.08-26.17 15.26-40.96 18.31-2.82.45-5.97 1.37-8.53-.39-10.71-7.31-20-16.63-27.31-27.32-.06-.85-.1-1.68-.12-2.52 9.66 2.44 19.51-.96 28.47-4.44 18.44-7.85 34.88-19.78 49.84-32.99-3.04-3.19-6.09-6.38-9.19-9.52-1.08-1.28-2.65-2.61-2.31-4.49.14-2 1.97-3.41 3.91-3.37zM767.94 243.86c9.98-4.72 16.68-14.81 18.2-25.64.27 43.93.01 87.86.12 131.78.01 5.11-.14 10.34-1.85 15.21-3.45 10.02-12.07 18.17-22.38 20.8-4.91 1.39-10.05.94-15.08.99-236.65.01-473.31-.01-709.96.01-5.88.19-11.96-.02-17.37-2.6C8.47 379.76.71 368.45 0 356.42V221.4l.63.4c2.12 7.41 6.21 14.44 12.57 18.97 5.92 4.49 13.39 6.54 20.76 6.48h712.05c7.41.17 15.17.07 21.93-3.39M287.3 280.9c-.03 21.04-.02 42.08 0 63.12-.15 2.56 2.04 4.97 4.63 4.94 3.4.09 6.8.1 10.19 0 2.53 0 4.68-2.35 4.58-4.85.09-3.8-.04-7.6.02-11.39 10.77-.54 21.84 1.34 32.36-1.62 8.32-2.21 14.96-9.41 16.41-17.9 1.72-9.15 1.44-19.62-4.27-27.39-5.37-7.16-14.72-9.51-23.24-9.79-12.01-.04-24.03-.03-36.04 0-2.61-.17-4.71 2.4-4.64 4.88m88.12 15.61c-4.33 2.45-7.42 8.25-4.94 12.99 3.74 1.11 7.71.86 11.55.56 3.71-.58 5.28-4.85 8.95-5.54 4.02-.86 8.6-.94 12.26 1.21 2.9 1.87 3.03 5.69 3.41 8.78-6.55.06-13.11-.03-19.66.03-6.12.26-12.51 2.03-17.02 6.37-4.62 4.41-5.48 11.65-3.44 17.49 1.82 4.93 6.46 8.19 11.25 9.89 9.8 3.4 21.26 2.35 29.96-3.44.52 1.76.88 4.21 3.24 4.28 4.14.08 8.45.66 12.45-.7.43-1.46.88-2.94.83-4.47-.03-10-.02-20-.01-30 0-5.32-1.59-10.92-5.53-14.69-5.4-5.33-13.33-7.02-20.69-7.01-7.66.02-15.82.3-22.61 4.25m57.08.46c2.59 8.87 5.37 17.7 8.1 26.54 2.44 7.05 5.41 14.65 11.83 19.01 3.52 2.57 7.93 3.18 12.15 3.64-1.26 3.3-2.52 7.03-5.75 8.94-4.67 2.77-10.1-.92-15.06.91-1.19 3.28-1.75 7.19.02 10.37 4.21 2.54 9.5 1.84 14.22 2.12 5.53.32 11.36-1.11 15.39-5.09 4.63-4.81 6.98-11.25 8.83-17.54 4.4-15.66 8.77-31.32 13.15-46.99.52-1.51.8-4.13-1.53-4.25-3.94-.24-7.9-.09-11.85-.09-2.42-.16-3.75 2.26-4.19 4.29-3.23 11.54-6.66 23.02-9.8 34.58-5-.13-7.5-5.12-9.21-9.12-3.32-8.94-5.61-18.23-8.74-27.23-2.13-4.09-7.39-2.06-11.04-2.55-2.23.24-6.49-.97-6.52 2.46z"/><path d="M306.7 290.51c7.74.17 15.78-.88 23.27 1.6 4.27 1.27 6.75 5.58 6.91 9.86.62 5.39-.6 12.37-6.33 14.54-7.6 2.87-15.9 1.43-23.83 1.77-.03-9.26.01-18.52-.02-27.77zM383.44 331.98c-.1-3.43 3.39-5.64 6.5-5.71 5.52-.1 11.06.01 16.59-.02-.01 2.52-.01 5.05.04 7.58-4.89 3.03-10.66 4.93-16.46 4.54-3.31-.19-7.07-2.69-6.67-6.39z"/></g><path fill="#989c6b" d="M0 216.82c1.65 1.1 1.74 3.46.63 4.98l-.63-.4v-4.58z"/></svg>