<svg viewBox="0 0 259 194" xmlns="http://www.w3.org/2000/svg"><g fill="#E72225"><path d="M104.82 0h47.62c5.34 1.03 10.12 5.35 10.55 10.95.22 6.76-.01 13.53.07 20.3-2.64-1.3-5.28-2.56-7.98-3.72-.22-5.53-.06-11.05-.09-16.58-17.58.01-35.16-.03-52.74.02.18 14.18-.18 28.37.19 42.54 1.42-1.74 2.8-3.52 4.16-5.32 3.5 4.96 7.39 10.52 13.59 12.17 11.56-8.08 20.13-20.02 26.09-32.7 14.39 6.75 28.63 13.82 43 20.64-6.94 10.25-17.31 17.91-28.9 22.11-18.5 6.83-38.73 6.85-58.09 4.61-.03 8.99.05 17.98-.04 26.97 17.58.02 35.16.01 52.74.01.04-8.54-.14-17.07.09-25.6 2.7-.8 5.36-1.73 7.99-2.74-.03 15.11.02 30.23-.01 45.34.13 6.4-5.62 12.21-12.03 12.1-14.02.08-28.03-.04-42.05.05-2.88.02-5.94 0-8.49-1.53-4.17-2.21-6.55-6.91-6.42-11.56-.07-14.71.02-29.44-.03-44.15-5.29-.89-10.56-1.9-15.77-3.2-2.96-.81-6.27-.52-8.9-2.29 1.17-.05 2.33-.03 3.49.08 7.76 1.07 15.04-3.04 21.2-7.3.05-16.43-.13-32.87.07-49.3.1-5.97 4.94-10.9 10.69-11.9m18.68 109.48c-.79 3.44-.18 7.07-.36 10.59 3.45.81 7.04.54 10.55.37 1.82-3.29.7-7.66.45-11.33-3.52.21-7.22-.47-10.64.37m-13.62 2.27c-.02 2.08-.01 4.16.02 6.25h6.1c0-2.08 0-4.16-.01-6.24-2.04-.03-4.07-.03-6.11-.01m31.98 0c-.01 2.08 0 4.16.04 6.25h6.1c0-2.08 0-4.16-.01-6.24-2.04-.03-4.08-.04-6.13-.01zM30.95 155c1.7-.01 3.39 0 5.09 0-.02 1.55-.04 3.11-.08 4.66-1.63-.02-3.26-.02-4.89-.01-.06-1.56-.09-3.11-.12-4.65zM247.78 161.02c-.01-1.37-.01-2.73 0-4.09 1.44.01 2.88.01 4.33.01l.03 4.06c-1.45 0-2.91.01-4.36.02zM27.42 161.73l4.77.06-.03 4.34c-1.59.02-3.17.03-4.76.06.01-1.49.01-2.98.02-4.46zM34.88 161.82c1.61-.04 3.22-.09 4.84-.14.04 1.48.09 2.96.15 4.45-1.65.01-3.3.01-4.94.02-.02-1.44-.04-2.89-.05-4.33zM74.74 161.75c2.1 0 4.21-.08 6.31.13-1.3 2.62-3.2 4.88-4.78 7.33 3.37.07 7.05.32 9.72 2.65 4.48 3.68 5.15 9.96 5.06 15.37-11.02-.04-22.05.11-33.07-.06-3.34.21-5.9-2.85-5.87-6.04-.24-6.46.03-12.93-.12-19.4 1.87-.02 3.74-.04 5.62-.05.16 6.39-.4 12.81.37 19.18 1.24.56 2.53 1.2 3.94 1.11 7.76.06 15.51.04 23.27.01-.85-3.58-3.39-7.12-7.29-7.58-3.63-.3-7.28-.05-10.91-.08 2.41-4.3 5.14-8.4 7.75-12.57zM111.89 161.8c1.61-.02 3.22-.05 4.84-.08 0 1.5-.01 3-.02 4.5-1.61-.05-3.22-.08-4.84-.12.01-1.44.02-2.87.02-4.3zM164.25 161.63l4.88.15c-.03 1.44-.04 2.88-.05 4.32-1.61.03-3.21.07-4.82.11-.01-1.53-.01-3.06-.01-4.58zM180.46 187.33c-.18-8.57-.18-17.15.01-25.72 1.82.05 3.64.09 5.47.13-.12 8.48-.11 16.97-.01 25.45-1.82.04-3.65.08-5.47.14zM244.55 162.74l4.48.09c-.02 1.34-.03 2.69-.04 4.03-1.52-.03-3.03-.07-4.54-.11.03-1.34.07-2.67.1-4.01zM251.28 162.76c1.45.01 2.9.01 4.35.01.01 1.35.03 2.7.05 4.05-1.47 0-2.94 0-4.4.01v-4.07zM0 169.29c1.83 0 3.67.01 5.5.01.22 5.31-.99 11.01 1.26 16.01 2.06 4.3 8.7 4.81 11.24.71 2.9-5.07 1.33-11.2 1.67-16.75l5.51.03c-.04 4.22-.02 8.43-.09 12.64 1.46.04 2.91.09 4.37.14 2.7-3.68 1.07-8.54 1.48-12.77 1.82.02 3.64.03 5.46.04.02 4.23.05 8.47-.35 12.69 1.92-.33 4.54.66 5.8-1.28.78-3.75.31-7.63.38-11.43 1.87-.01 3.75-.01 5.62-.02 0 3.53.25 7.09-.24 10.61-.49 3.83-3.81 7.38-7.83 7.28-5.33.16-10.66-.02-15.99.02-2.29 3.53-5.74 6.32-10.05 6.78h-2.33C5.15 193.21.56 187.76 0 181.62v-12.33zM121.43 169.3c1.85-.01 3.71-.03 5.57-.04-.33 6.19 1.22 12.96-2.09 18.6-1.9 3.47-5.59 5.44-9.38 6.14h-2.19c-3.54-.64-7.1-2.25-9.06-5.41-3.92-5.67-1.97-12.9-2.43-19.31h5.45c.42 5.54-1.29 11.71 1.67 16.76 2.53 4.1 9.28 3.59 11.24-.77 2.16-5.02.96-10.67 1.22-15.97zM132.13 173.17c3.16-5.04 11.67-5.23 14.92-.2 1.9 2.61 1.44 6 1.61 9.03h9.55c-.26-2.75-.82-5.73.58-8.28 3.21-6.31 14.23-5.84 16.76.84 2.04 4.95-.65 11.85-6.38 12.51-6.76.45-13.56.02-20.33.17-.82 4.4-4.81 6.73-9.05 6.76h-.86c.01-1.36.02-2.72.04-4.08 1.68-.64 3.33-1.39 4.73-2.52-2.89-.35-6.11.25-8.71-1.37-4.39-2.43-5.45-8.77-2.86-12.86m4.67 6.92c1.04 2.58 4.06 1.76 6.22 1.92-.21-2.69.95-6.57-2.39-7.72-3.19-1.09-5.56 3.31-3.83 5.8m28.08 2.11c1.59 1.45 4.3.76 5.22-1.13 1.24-2.16.46-4.7-.44-6.82-.67-.15-2.01-.47-2.68-.62-4.16.06-5.07 6.34-2.1 8.57zM194.61 169.28c4.54.03 9.67.51 12.79 4.27 3.45 3.69 2.74 9.05 2.78 13.69-6.65 0-13.31 0-19.97-.01 0-1.74 0-3.49-.02-5.23 4.91-.01 9.82.01 14.74-.02.22-5.54-5.19-8.73-10.21-8.02-.05-1.56-.08-3.12-.11-4.68zM214.97 174.01c2.64-6.02 12.55-6.33 15.67-.58 1.51 2.59 1.35 5.68 1.46 8.57h8.85c-.19-3.21-.77-6.87 1.48-9.55 4.65-5.88 16.25-3.26 16.57 4.8v2.42c-.72 3.51-3.19 6.92-6.96 7.38-6.6.47-13.24.05-19.86.19-.74 1.55-1.29 3.25-2.44 4.57-2.04 1.85-4.99 1.77-7.54 2.18l-.08-4.03c1.78-.59 3.49-1.41 4.96-2.59-3-.33-6.35.34-8.99-1.44-3.92-2.39-5.23-7.9-3.12-11.92m5.14 1.2c-.39 1.81-.88 3.81.25 5.48 1.41 2.01 4.09 1.07 6.13 1.31-.23-2.45.63-5.95-1.95-7.4-1.44-1.03-3.07 0-4.43.61m27.27-.79c-2.41 2.36-1.88 7.5 1.66 8.49 3.69.69 5.32-3.96 4.13-6.8-.46-2.55-3.98-3.23-5.79-1.69z"/></g></svg>